<svg width="113" height="12" viewBox="0 0 113 12" fill="none" xmlns="http://www.w3.org/2000/svg">
<path fill-rule="evenodd" clip-rule="evenodd" d="M17.5434 11.8386H20.4272V8.21882H21.9468L23.7705 11.8386H26.8024L24.6009 7.6489L24.801 7.52855C24.9632 7.43003 25.1127 7.30998 25.2459 7.17136C25.4411 6.97686 25.6197 6.76467 25.7796 6.53724C25.98 6.24128 26.1339 5.91339 26.2355 5.56609C26.364 5.15021 26.4279 4.71522 26.4245 4.27794C26.4484 3.22105 26.0521 2.20154 25.3311 1.46479C24.6021 0.70761 23.6767 0.32902 22.5548 0.32902H17.5434V11.8386ZM23.541 4.27382C23.5488 4.58286 23.4332 4.88122 23.2222 5.09655C23.0018 5.31925 22.7048 5.43807 22.3993 5.42566H20.4272V3.13059H22.3993C22.7041 3.11803 23.0007 3.23521 23.2222 3.45563C23.4334 3.66895 23.5491 3.96605 23.541 4.27382ZM30.3688 7.80952C30.3581 7.35804 30.5134 6.91963 30.8024 6.58556C31.0501 6.26801 31.4201 6.08393 31.8107 6.08393C32.2012 6.08393 32.5712 6.26801 32.8189 6.58556C33.1079 6.91963 33.2633 7.35804 33.2526 7.80952C33.2632 8.26099 33.1079 8.6994 32.8189 9.03348C32.5712 9.35102 32.2012 9.53511 31.8107 9.53511C31.4201 9.53511 31.0501 9.35102 30.8024 9.03348C30.5134 8.6994 30.3581 8.26099 30.3688 7.80952ZM35.9073 7.80963C35.9073 6.69122 35.5057 5.71335 34.7026 4.87602C33.1028 3.20121 30.5164 3.20121 28.9166 4.87602C28.111 5.71343 27.7082 6.6913 27.7082 7.80963C27.7083 8.92796 28.1111 9.90583 28.9166 10.7432C30.5164 12.418 33.1028 12.418 34.7026 10.7432C35.5061 9.90583 35.9079 8.92796 35.9079 7.80963H35.9073ZM36.9671 7.80948C36.9671 8.92789 37.3699 9.90576 38.1754 10.7431C38.9349 11.5606 39.98 12.0148 41.0667 11.9996C41.4561 12.0005 41.8435 11.9396 42.2157 11.819C42.5282 11.7245 42.8293 11.5926 43.1131 11.4257C43.34 11.2843 43.5535 11.1205 43.7507 10.9364C43.8871 10.8168 44.0136 10.6852 44.1288 10.5431C44.1831 10.4654 44.2251 10.4052 44.2548 10.3625L42.742 8.63617L42.5864 8.84482C42.4364 9.0359 42.251 9.19294 42.0415 9.3064C41.7924 9.45734 41.5098 9.53625 41.2224 9.53509C40.7938 9.54653 40.3805 9.36729 40.0841 9.04148C39.7802 8.71242 39.6157 8.26804 39.6282 7.80948C39.6157 7.35092 39.7802 6.90654 40.0841 6.57748C40.3804 6.25172 40.7936 6.07249 41.2221 6.08386C41.5176 6.08488 41.8067 6.17374 42.0561 6.34017C42.2441 6.44892 42.4164 6.5854 42.5677 6.74547C42.6297 6.82383 42.6878 6.90549 42.7418 6.99013L44.2541 5.26451L44.1355 5.09593C44.0214 4.94037 43.8894 4.80021 43.7427 4.67863C43.5427 4.50514 43.3322 4.34558 43.1124 4.20097C42.8299 4.0223 42.5257 3.8846 42.2081 3.79159C40.7765 3.35145 39.2305 3.76677 38.1751 4.87505C37.3697 5.713 36.967 6.69114 36.9671 7.80948ZM50.6301 7.23951L53.3583 3.78025H50.4L48.1986 6.5814V0.32902H45.6188V11.8386H48.1986V9.78389L48.8806 8.96524L50.6301 11.8386H53.4398L50.6301 7.23951ZM55.4054 0L53.7374 4.02919L55.3312 5.01642L57.533 1.31646L55.4054 0ZM61.2469 3.78053H58.6673V11.8389H61.2469V7.80972C61.2469 7.32818 61.3606 6.94827 61.5879 6.66999C61.8034 6.39744 62.1257 6.24367 62.4627 6.25268C62.7548 6.2437 63.0352 6.37338 63.2263 6.6058C63.424 6.84121 63.5228 7.16224 63.5228 7.56891V11.8389H66.1027V7.0718C66.1027 6.04442 65.8482 5.21237 65.3391 4.57565C64.8608 3.95377 64.1349 3.60079 63.3745 3.62034C62.967 3.62112 62.5665 3.73166 62.2112 3.94142C61.8405 4.15547 61.6021 4.32537 61.4959 4.45111C61.3897 4.57685 61.3067 4.6824 61.2469 4.76776V3.78053ZM69.06 0L67.3921 4.02919L68.9859 5.01642L71.1877 1.31646L69.06 0ZM77.7859 11.8389C78.9176 11.8389 79.8455 11.5017 80.5696 10.8275C81.2937 10.1533 81.6556 9.3667 81.6554 8.46778C81.659 8.1009 81.5895 7.73728 81.4515 7.40028C81.3422 7.11812 81.188 6.85756 80.9956 6.62975C80.823 6.43842 80.6288 6.26996 80.4174 6.12809C80.2713 6.02417 80.119 5.93035 79.9614 5.84721C79.875 5.80705 79.807 5.7763 79.7576 5.75494L79.8985 5.67467C80.0238 5.60083 80.1396 5.51047 80.2432 5.40579C80.3854 5.26745 80.5179 5.11857 80.6398 4.96029C80.7908 4.75428 80.9062 4.52198 80.9808 4.27398C81.0754 3.98337 81.123 3.67814 81.1217 3.37098C81.1217 2.55229 80.7881 1.84062 80.1209 1.23598C79.4536 0.63134 78.5739 0.32902 77.4817 0.32902H72.7004V11.8386H77.7859V11.8389ZM75.5843 9.37463V7.07152H77.5565C77.8619 7.05912 78.1589 7.17794 78.3793 7.40064C78.8046 7.85793 78.8046 8.58869 78.3793 9.04598C78.1589 9.26867 77.8619 9.38749 77.5565 9.3751H75.5843V9.37463ZM77.1787 2.80101C77.4428 2.78669 77.7015 2.88343 77.8978 3.06989C78.079 3.2575 78.176 3.51714 78.1647 3.78428C78.176 4.05141 78.079 4.31105 77.8978 4.49866C77.7015 4.68513 77.4428 4.78187 77.1787 4.76755H75.5843V2.80101H77.1787ZM85.7564 0.32902H83.1766V11.8386H85.7564V0.32902ZM89.9294 7.8097C89.9187 7.35817 90.0741 6.91971 90.3631 6.58562C90.6108 6.26804 90.9808 6.08393 91.3714 6.08393C91.762 6.08393 92.132 6.26804 92.3796 6.58562C92.6687 6.91967 92.824 7.3581 92.8133 7.80958C92.8241 8.26111 92.6687 8.69958 92.3796 9.03366C92.132 9.35124 91.762 9.53536 91.3714 9.53536C90.9808 9.53536 90.6108 9.35124 90.3631 9.03366C90.0741 8.69957 89.9187 8.26111 89.9294 7.80958V7.8097ZM95.468 7.80963C95.468 6.69122 95.0664 5.71335 94.2633 4.87602C92.6634 3.20121 90.0771 3.20121 88.4772 4.87602C87.6716 5.71343 87.2688 6.6913 87.2688 7.80963C87.2688 8.92796 87.6716 9.90583 88.4772 10.7432C90.0771 12.418 92.6634 12.418 94.2633 10.7432C95.0663 9.90576 95.4679 8.92785 95.468 7.80951V7.80963ZM96.5277 7.80962C96.5277 8.92803 96.9305 9.9059 97.7361 10.7432C98.4955 11.5607 99.5405 12.0148 100.627 11.9996C101.017 12.0005 101.404 11.9396 101.776 11.819C102.089 11.7245 102.39 11.5926 102.674 11.4257C102.901 11.2844 103.114 11.1205 103.311 10.9364C103.448 10.8168 103.574 10.6852 103.689 10.5431C103.744 10.4654 103.786 10.4052 103.815 10.3625L102.303 8.6362L102.147 8.84485C101.997 9.03591 101.812 9.19294 101.602 9.30643C101.353 9.45739 101.07 9.53629 100.783 9.53512C100.354 9.54649 99.9412 9.36726 99.645 9.0415C99.341 8.71245 99.1765 8.26807 99.1891 7.80951C99.1765 7.35095 99.341 6.90657 99.645 6.57751C99.9412 6.25176 100.354 6.07252 100.783 6.08389C101.078 6.08491 101.367 6.17376 101.617 6.3402C101.805 6.4489 101.977 6.58539 102.128 6.7455C102.19 6.82383 102.249 6.90549 102.303 6.99015L103.815 5.26454L103.696 5.09596C103.582 4.94038 103.45 4.80021 103.303 4.67866C103.104 4.50514 102.893 4.34558 102.673 4.201C102.391 4.02231 102.086 3.8846 101.769 3.79162C100.337 3.35143 98.7912 3.76676 97.7359 4.87508C96.9304 5.71303 96.5276 6.69117 96.5277 7.80951V7.80962ZM110.191 7.23963L112.919 3.78036H109.961L107.759 6.5814V0.32902H105.179V11.8386H107.759V9.7839L108.441 8.96524L110.191 11.8386H113L110.191 7.23963Z" fill="#222B45"/>
<path fill-rule="evenodd" clip-rule="evenodd" d="M0 0H11.8676V12H0V0Z" fill="#FF0000"/>
<path fill-rule="evenodd" clip-rule="evenodd" d="M7.39162 0.571289L2.2605 6.17144H5.46068L3.50938 11.1867L9.25932 4.4203H6.05913L7.39162 0.571289Z" fill="white"/>
</svg>
