<svg width="96" height="12" viewBox="0 0 96 12" fill="none" xmlns="http://www.w3.org/2000/svg">
<path fill-rule="evenodd" clip-rule="evenodd" d="M0.543381 11.8386H3.4272V8.21882H4.94677L6.77048 11.8386H9.80244L7.60091 7.6489L7.801 7.52855C7.96324 7.43003 8.11274 7.30998 8.24585 7.17136C8.4411 6.97686 8.61969 6.76467 8.77956 6.53724C8.98001 6.24128 9.13395 5.91339 9.23549 5.56609C9.36405 5.15021 9.42787 4.71522 9.42451 4.27794C9.4484 3.22105 9.05212 2.20154 8.33106 1.46479C7.60209 0.70761 6.67668 0.32902 5.55482 0.32902H0.543381V11.8386ZM6.54099 4.27382C6.54879 4.58286 6.43319 4.88122 6.22223 5.09655C6.00185 5.31925 5.70477 5.43807 5.39934 5.42566H3.42716V3.13059H5.39934C5.70407 3.11803 6.00074 3.23521 6.22223 3.45563C6.43338 3.66895 6.54912 3.96605 6.54099 4.27382ZM13.3688 7.80952C13.3581 7.35804 13.5134 6.91963 13.8024 6.58556C14.0501 6.26801 14.4201 6.08393 14.8107 6.08393C15.2012 6.08393 15.5712 6.26801 15.8189 6.58556C16.1079 6.91963 16.2633 7.35804 16.2526 7.80952C16.2632 8.26099 16.1079 8.6994 15.8189 9.03348C15.5712 9.35102 15.2012 9.53511 14.8107 9.53511C14.4201 9.53511 14.0501 9.35102 13.8024 9.03348C13.5134 8.6994 13.3581 8.26099 13.3688 7.80952ZM18.9073 7.80963C18.9073 6.69122 18.5057 5.71335 17.7026 4.87602C16.1028 3.20121 13.5164 3.20121 11.9166 4.87602C11.111 5.71343 10.7082 6.6913 10.7082 7.80963C10.7083 8.92796 11.1111 9.90583 11.9166 10.7432C13.5164 12.418 16.1028 12.418 17.7026 10.7432C18.5061 9.90583 18.9079 8.92796 18.9079 7.80963H18.9073ZM19.9671 7.80948C19.9671 8.92789 20.3699 9.90576 21.1754 10.7431C21.9349 11.5606 22.98 12.0148 24.0667 11.9996C24.4561 12.0005 24.8435 11.9396 25.2157 11.819C25.5282 11.7245 25.8293 11.5926 26.1131 11.4257C26.34 11.2843 26.5535 11.1205 26.7507 10.9364C26.8871 10.8168 27.0136 10.6852 27.1288 10.5431C27.1831 10.4654 27.2251 10.4052 27.2548 10.3625L25.742 8.63617L25.5864 8.84482C25.4364 9.0359 25.251 9.19294 25.0415 9.3064C24.7924 9.45734 24.5098 9.53625 24.2224 9.53509C23.7938 9.54653 23.3805 9.36729 23.0841 9.04148C22.7802 8.71242 22.6157 8.26804 22.6282 7.80948C22.6157 7.35092 22.7802 6.90654 23.0841 6.57748C23.3804 6.25172 23.7936 6.07249 24.2221 6.08386C24.5176 6.08488 24.8067 6.17374 25.0561 6.34017C25.2441 6.44892 25.4164 6.5854 25.5677 6.74547C25.6297 6.82383 25.6878 6.90549 25.7418 6.99013L27.2541 5.26451L27.1355 5.09593C27.0214 4.94037 26.8894 4.80021 26.7427 4.67863C26.5427 4.50514 26.3322 4.34558 26.1124 4.20097C25.8299 4.0223 25.5257 3.8846 25.2081 3.79159C23.7765 3.35145 22.2305 3.76677 21.1751 4.87505C20.3697 5.713 19.967 6.69114 19.9671 7.80948ZM33.6301 7.23951L36.3583 3.78025H33.4L31.1986 6.5814V0.32902H28.6188V11.8386H31.1986V9.78389L31.8806 8.96524L33.6301 11.8386H36.4398L33.6301 7.23951ZM38.4054 0L36.7374 4.02919L38.3312 5.01642L40.533 1.31646L38.4054 0ZM44.2469 3.78053H41.6673V11.8389H44.2469V7.80972C44.2469 7.32818 44.3606 6.94827 44.5879 6.66999C44.8034 6.39744 45.1257 6.24367 45.4627 6.25268C45.7548 6.2437 46.0352 6.37338 46.2263 6.6058C46.424 6.84121 46.5228 7.16224 46.5228 7.56891V11.8389H49.1027V7.0718C49.1027 6.04442 48.8482 5.21237 48.3391 4.57565C47.8608 3.95377 47.1349 3.60079 46.3745 3.62034C45.967 3.62112 45.5665 3.73166 45.2112 3.94142C44.8405 4.15547 44.6021 4.32537 44.4959 4.45111C44.3897 4.57685 44.3067 4.6824 44.2469 4.76776V3.78053ZM52.06 0L50.3921 4.02919L51.9859 5.01642L54.1877 1.31646L52.06 0ZM60.7859 11.8389C61.9176 11.8389 62.8455 11.5017 63.5696 10.8275C64.2937 10.1533 64.6556 9.3667 64.6554 8.46778C64.659 8.1009 64.5895 7.73728 64.4515 7.40028C64.3422 7.11812 64.188 6.85756 63.9956 6.62975C63.823 6.43842 63.6288 6.26996 63.4174 6.12809C63.2713 6.02417 63.119 5.93035 62.9614 5.84721C62.875 5.80705 62.807 5.7763 62.7576 5.75494L62.8985 5.67467C63.0238 5.60083 63.1396 5.51047 63.2432 5.40579C63.3854 5.26745 63.5179 5.11857 63.6398 4.96029C63.7908 4.75428 63.9062 4.52198 63.9808 4.27398C64.0754 3.98337 64.123 3.67814 64.1217 3.37098C64.1217 2.55229 63.7881 1.84062 63.1209 1.23598C62.4536 0.63134 61.5739 0.32902 60.4817 0.32902H55.7004V11.8386H60.7859V11.8389ZM58.5843 9.37463V7.07152H60.5565C60.8619 7.05912 61.1589 7.17794 61.3793 7.40064C61.8046 7.85793 61.8046 8.58869 61.3793 9.04598C61.1589 9.26867 60.8619 9.38749 60.5565 9.3751H58.5843V9.37463ZM60.1787 2.80101C60.4428 2.78669 60.7015 2.88343 60.8978 3.06989C61.079 3.2575 61.176 3.51714 61.1647 3.78428C61.176 4.05141 61.079 4.31105 60.8978 4.49866C60.7015 4.68513 60.4428 4.78187 60.1787 4.76755H58.5843V2.80101H60.1787ZM68.7564 0.32902H66.1766V11.8386H68.7564V0.32902ZM72.9294 7.8097C72.9187 7.35817 73.0741 6.91971 73.3631 6.58562C73.6108 6.26804 73.9808 6.08393 74.3714 6.08393C74.762 6.08393 75.132 6.26804 75.3796 6.58562C75.6687 6.91967 75.824 7.3581 75.8133 7.80958C75.8241 8.26111 75.6687 8.69958 75.3796 9.03366C75.132 9.35124 74.762 9.53536 74.3714 9.53536C73.9808 9.53536 73.6108 9.35124 73.3631 9.03366C73.0741 8.69957 72.9187 8.26111 72.9294 7.80958V7.8097ZM78.468 7.80963C78.468 6.69122 78.0664 5.71335 77.2633 4.87602C75.6634 3.20121 73.0771 3.20121 71.4772 4.87602C70.6716 5.71343 70.2688 6.6913 70.2688 7.80963C70.2688 8.92796 70.6716 9.90583 71.4772 10.7432C73.0771 12.418 75.6634 12.418 77.2633 10.7432C78.0663 9.90576 78.4679 8.92785 78.468 7.80951V7.80963ZM79.5277 7.80962C79.5277 8.92803 79.9305 9.9059 80.7361 10.7432C81.4955 11.5607 82.5405 12.0148 83.6272 11.9996C84.0167 12.0005 84.4041 11.9396 84.7763 11.819C85.0888 11.7245 85.3899 11.5926 85.6737 11.4257C85.9006 11.2844 86.1141 11.1205 86.3113 10.9364C86.4477 10.8168 86.5742 10.6852 86.6894 10.5431C86.7437 10.4654 86.7857 10.4052 86.8154 10.3625L85.3027 8.6362L85.147 8.84485C84.997 9.03591 84.8116 9.19294 84.6021 9.30643C84.353 9.45739 84.0704 9.53629 83.7829 9.53512C83.3544 9.54649 82.9412 9.36726 82.645 9.0415C82.341 8.71245 82.1765 8.26807 82.1891 7.80951C82.1765 7.35095 82.341 6.90657 82.645 6.57751C82.9412 6.25176 83.3544 6.07252 83.7829 6.08389C84.0783 6.08491 84.3675 6.17376 84.617 6.3402C84.805 6.4489 84.9772 6.58539 85.1284 6.7455C85.1905 6.82383 85.2486 6.90549 85.3027 6.99015L86.8149 5.26454L86.6964 5.09596C86.5822 4.94038 86.4502 4.80021 86.3034 4.67866C86.1035 4.50514 85.893 4.34558 85.6733 4.201C85.3907 4.02231 85.0865 3.8846 84.7689 3.79162C83.3372 3.35143 81.7912 3.76676 80.7359 4.87508C79.9304 5.71303 79.5276 6.69117 79.5277 7.80951V7.80962ZM93.1907 7.23963L95.9192 3.78036H92.961L90.7592 6.5814V0.32902H88.1794V11.8386H90.7592V9.7839L91.4413 8.96524L93.1907 11.8386H96.0001L93.1907 7.23963Z" fill="#222B45"/>
</svg>
