<svg width="224" height="224" viewBox="0 0 224 224" fill="none"
    xmlns="http://www.w3.org/2000/svg">
    <circle cx="112" cy="112" r="110" fill="#CFFD51" stroke="#343439" stroke-width="4"/>
    <path d="M100.656 170.775C128.845 170.775 142.982 151.121 154.533 119.485L155.222 117.588C170.997 74.2285 159.532 45.7819 124.965 45.7819C97.036 45.7819 82.8989 65.7808 71.1754 97.9341L70.4858 99.8305C54.8833 142.759 66.1757 170.775 100.656 170.775ZM96.5188 168.533C78.9336 168.447 72.8133 153.017 84.0195 120.778L96.0016 87.7622C105.053 61.4707 111.949 48.1094 128.155 48.1094C145.74 48.1956 151.774 63.8843 140.396 96.5548L128.327 129.656C119.449 155.431 112.639 168.533 96.5188 168.533Z" fill="#343439"/>
</svg>
