<svg width="45" height="51" viewBox="0 0 45 51" fill="none" xmlns="http://www.w3.org/2000/svg">
<path d="M18.012 21.3945C16.5585 21.3945 15.411 22.6695 15.411 24.225C15.411 25.7805 16.584 27.0555 18.012 27.0555C19.4655 27.0555 20.613 25.7805 20.613 24.225C20.6385 22.6695 19.4655 21.3945 18.012 21.3945ZM27.3195 21.3945C25.866 21.3945 24.7185 22.6695 24.7185 24.225C24.7185 25.7805 25.8915 27.0555 27.3195 27.0555C28.773 27.0555 29.9205 25.7805 29.9205 24.225C29.9205 22.6695 28.773 21.3945 27.3195 21.3945Z" fill="#343439"/>
<path d="M39.7125 0H5.5425C2.661 0 0.315002 2.346 0.315002 5.253V39.729C0.315002 42.636 2.661 44.982 5.5425 44.982H34.4595L33.108 40.2645L36.372 43.299L39.4575 46.155L44.94 51V5.253C44.94 2.346 42.594 0 39.7125 0ZM29.8695 33.303C29.8695 33.303 28.9515 32.2065 28.1865 31.2375C31.527 30.294 32.802 28.203 32.802 28.203C31.7565 28.8915 30.762 29.376 29.8695 29.7075C28.5945 30.243 27.3705 30.6 26.172 30.804C23.724 31.263 21.48 31.1355 19.5675 30.7785C18.114 30.498 16.8645 30.09 15.819 29.682C15.2325 29.4525 14.595 29.172 13.9575 28.815C13.881 28.764 13.8045 28.7385 13.728 28.6875C13.677 28.662 13.6515 28.6365 13.626 28.611C13.167 28.356 12.912 28.1775 12.912 28.1775C12.912 28.1775 14.136 30.2175 17.3745 31.1865C16.6095 32.1555 15.666 33.303 15.666 33.303C10.0305 33.1245 7.8885 29.427 7.8885 29.427C7.8885 21.216 11.5605 14.5605 11.5605 14.5605C15.2325 11.8065 18.726 11.883 18.726 11.883L18.981 12.189C14.391 13.515 12.2745 15.5295 12.2745 15.5295C12.2745 15.5295 12.8355 15.2235 13.779 14.79C16.5075 13.5915 18.675 13.26 19.5675 13.1835C19.7205 13.158 19.848 13.1325 20.001 13.1325C21.5565 12.9285 23.316 12.8775 25.152 13.0815C27.5745 13.362 30.1755 14.076 32.8275 15.5295C32.8275 15.5295 30.813 13.617 26.478 12.291L26.835 11.883C26.835 11.883 30.3285 11.8065 34.0005 14.5605C34.0005 14.5605 37.6725 21.216 37.6725 29.427C37.6725 29.427 35.505 33.1245 29.8695 33.303Z" fill="#343439"/>
</svg>
