<svg width="47" height="47" viewBox="0 0 47 47" fill="none" xmlns="http://www.w3.org/2000/svg">
<path d="M44.7031 0.453125H2.29688C1.27705 0.453125 0.453125 1.27705 0.453125 2.29688V44.7031C0.453125 45.7229 1.27705 46.5469 2.29688 46.5469H44.7031C45.7229 46.5469 46.5469 45.7229 46.5469 44.7031V2.29688C46.5469 1.27705 45.7229 0.453125 44.7031 0.453125ZM39.3793 13.9067H35.6976C32.8109 13.9067 32.2521 15.278 32.2521 17.2946V21.7369H39.1431L38.2442 28.6913H32.2521V46.5469H25.0672V28.6971H19.0577V21.7369H25.0672V16.609C25.0672 10.6571 28.7028 7.41328 34.0151 7.41328C36.5618 7.41328 38.7455 7.60342 39.3851 7.68984V13.9067H39.3793Z" fill="#343439"/>
</svg>
