<svg width="50" height="50" viewBox="0 0 50 50" fill="none" xmlns="http://www.w3.org/2000/svg">
<g clip-path="url(#clip0_531_208)">
<path d="M28.203 24.6411C28.203 32.4968 21.8895 38.865 14.1017 38.865C6.31402 38.865 0 32.4953 0 24.6411C0 16.7869 6.31354 10.4167 14.1017 10.4167C21.8899 10.4167 28.203 16.7855 28.203 24.6411Z" fill="#343439"/>
<path d="M43.6725 24.6409C43.6725 32.0353 40.5157 38.0321 36.6216 38.0321C32.7275 38.0321 29.5707 32.0353 29.5707 24.6409C29.5707 17.2465 32.727 11.2498 36.6211 11.2498C40.5152 11.2498 43.672 17.2446 43.672 24.6409" fill="#343439"/>
<path d="M50 24.6409C50 31.2645 48.89 36.6373 47.5202 36.6373C46.1505 36.6373 45.0409 31.2659 45.0409 24.6409C45.0409 18.0159 46.151 12.6445 47.5202 12.6445C48.8895 12.6445 50 18.0154 50 24.6409Z" fill="#343439"/>
</g>
<defs>
<clipPath id="clip0_531_208">
<rect width="50" height="50" fill="white"/>
</clipPath>
</defs>
</svg>
