<svg width="54" height="54" viewBox="0 0 54 54" fill="none" xmlns="http://www.w3.org/2000/svg">
<path fill-rule="evenodd" clip-rule="evenodd" d="M54 27C54 41.9117 41.9117 54 27 54C12.0883 54 0 41.9117 0 27C0 12.0883 12.0883 0 27 0C41.9117 0 54 12.0883 54 27ZM41.0526 23.0526C43.2316 23.0526 45 24.821 45 26.9999C45 28.6105 44.0211 29.9999 42.7263 30.6315C42.7895 31.0105 42.8211 31.3894 42.8211 31.7999C42.8211 37.8631 35.779 42.7578 27.0632 42.7578C18.3474 42.7578 11.3053 37.8631 11.3053 31.7999C11.3053 31.3894 11.3369 30.9789 11.4 30.5999C10.0105 29.9684 9.06317 28.6105 9.06317 26.9999C9.06317 24.821 10.8316 23.0526 13.0105 23.0526C14.0526 23.0526 15.0316 23.4947 15.7263 24.1578C18.4421 22.1684 22.2 20.9368 26.4 20.8105L28.3895 11.3999C28.4526 11.2105 28.5474 11.0526 28.7053 10.9578C28.8632 10.8631 29.0526 10.8315 29.2421 10.8631L35.779 12.2526C36.2211 11.3052 37.1684 10.6736 38.2737 10.6736C39.8211 10.6736 41.0842 11.9368 41.0842 13.4842C41.0842 15.0315 39.8211 16.2947 38.2737 16.2947C36.7579 16.2947 35.5263 15.0947 35.4632 13.6105L29.6211 12.3789L27.8211 20.8105C31.9263 20.9684 35.6526 22.2315 38.3369 24.1578C39.0316 23.4631 39.979 23.0526 41.0526 23.0526ZM20.8105 26.9999C19.2632 26.9999 18 28.2631 18 29.8105C18 31.3578 19.2632 32.621 20.8105 32.621C22.3579 32.621 23.6211 31.3578 23.6211 29.8105C23.6211 28.2631 22.3579 26.9999 20.8105 26.9999ZM27.0316 39.2842C28.1053 39.2842 31.7684 39.1578 33.6948 37.2315C33.979 36.9473 33.979 36.5052 33.7579 36.1894C33.4737 35.9052 33 35.9052 32.7158 36.1894C31.4842 37.3894 28.9263 37.8315 27.0632 37.8315C25.2 37.8315 22.6105 37.3894 21.4105 36.1894C21.1263 35.9052 20.6526 35.9052 20.3684 36.1894C20.0842 36.4736 20.0842 36.9473 20.3684 37.2315C22.2632 39.1263 25.9579 39.2842 27.0316 39.2842ZM30.379 29.8105C30.379 31.3578 31.6421 32.621 33.1895 32.621C34.7369 32.621 36 31.3578 36 29.8105C36 28.2631 34.7369 26.9999 33.1895 26.9999C31.6421 26.9999 30.379 28.2631 30.379 29.8105Z" fill="#343439"/>
</svg>
