<svg width="55" height="55" viewBox="0 0 55 55" fill="none"
    xmlns="http://www.w3.org/2000/svg">
    <path fill-rule="evenodd" clip-rule="evenodd" d="M55 27.5C55 42.6869 42.6869 55 27.5 55C12.3131 55 0 42.6869 0 27.5C0 12.3131 12.3131 0 27.5 0C42.6869 0 55 12.3131 55 27.5ZM28.4854 20.3019C25.811 21.4133 20.4646 23.7165 12.4483 27.209C11.1467 27.7269 10.4638 28.2333 10.4019 28.7283C10.2965 29.5671 11.346 29.8971 12.7715 30.344C12.9663 30.4058 13.1679 30.4677 13.3742 30.5365C14.779 30.9925 16.6673 31.5265 17.6481 31.5471C18.5396 31.5654 19.5342 31.1988 20.6319 30.4471C28.121 25.3894 31.9871 22.8342 32.23 22.7792C32.4019 22.7402 32.6402 22.6898 32.8006 22.8342C32.961 22.9762 32.945 23.2467 32.929 23.32C32.8235 23.7623 28.7123 27.5871 26.581 29.5671C25.9165 30.1835 25.4467 30.6213 25.3504 30.7221C25.135 30.9444 24.915 31.1575 24.7042 31.3615C23.3979 32.6173 22.4217 33.5615 24.7592 35.1015C25.8821 35.8417 26.7804 36.4535 27.6765 37.0631C28.655 37.73 29.6313 38.3946 30.8963 39.2242C31.2171 39.435 31.5242 39.6527 31.8244 39.8658C32.9633 40.6794 33.9877 41.4081 35.2527 41.2935C35.986 41.2248 36.7469 40.535 37.1319 38.4748C38.0417 33.6027 39.8338 23.0519 40.2485 18.7023C40.2738 18.3412 40.2584 17.9783 40.2027 17.6206C40.1694 17.3317 40.0287 17.0659 39.8085 16.8758C39.4808 16.6077 38.9721 16.5504 38.7429 16.555C37.7094 16.5733 36.1235 17.1256 28.4854 20.3019Z" fill="#343439"/>
</svg>
