<svg width="172" height="41" viewBox="0 0 172 41" fill="none" xmlns="http://www.w3.org/2000/svg">
<mask id="mask0_676_291" style="mask-type:alpha" maskUnits="userSpaceOnUse" x="0" y="0" width="33" height="22">
<path d="M0.0351562 17.1605L22.0976 17.3346C22.0976 17.3346 26.967 17.9393 31.1264 21.5102C31.3631 21.7118 32.2887 21.5102 32.2887 21.5102L32.1762 0.0939941L0.0351562 0.130642V17.1605Z" fill="white"/>
</mask>
<g mask="url(#mask0_676_291)">
<path fill-rule="evenodd" clip-rule="evenodd" d="M27.602 4.91786C24.9775 2.80601 21.3664 1.7478 16.7688 1.7478C10.6223 1.7478 7.89701 1.7478 5.31466 1.7478V3.31222C5.31466 3.31222 11.5315 3.31222 16.5579 3.31222C20.4666 3.31222 24.005 4.10015 26.1656 5.92339C28.3261 7.74892 29.9641 10.4655 29.9641 13.8188C29.9641 17.0552 28.5464 19.4534 26.2991 21.2675C24.0519 23.0815 20.0448 23.8809 16.033 23.8809C11.2456 23.8809 3.11663 23.8809 3.11663 23.8809V25.4453C3.11663 25.4453 14.1138 25.4431 16.1221 25.4431C20.961 25.4431 24.7408 24.4146 27.4614 22.3623C30.182 20.3077 31.5412 17.4194 31.5412 13.6928C31.5412 9.95696 30.2289 7.03199 27.602 4.91786Z" fill="#1C1E1D"/>
<path fill-rule="evenodd" clip-rule="evenodd" d="M26.6319 7.18548C24.9986 5.9738 23.1216 4.99805 17.8116 4.99805C12.0845 5.00034 11.3839 4.99805 8.97728 4.99805V6.52352C8.97728 6.52352 12.9305 6.47313 17.6148 6.52352C22.1421 6.56933 23.8035 7.06866 25.3267 8.17039C27.2763 9.57905 28.4855 11.3175 28.4855 13.7501C28.4855 16.0955 27.2576 17.7561 25.2985 19.1648C23.295 20.6078 20.2323 20.6239 18.9856 20.6513C18.5146 20.6628 12.4267 20.6513 12.4267 20.6513V22.1768C12.4267 22.1768 15.4566 22.218 17.3289 22.1745C21.6265 22.0806 24.1761 21.8309 26.5499 20.1062C28.7784 18.4914 29.9571 16.3589 29.9571 13.6584C29.9571 10.0967 28.134 8.30095 26.6319 7.18548Z" fill="#1C1E1D"/>
<path fill-rule="evenodd" clip-rule="evenodd" d="M25.8422 9.19865C24.6166 8.44736 23.541 7.94116 18.4677 7.94116C13.3124 7.94116 14.2849 7.94116 12.1173 7.94116V8.9444C12.1173 8.9444 14.0764 8.9444 18.292 8.9444C22.7865 8.9444 24.4901 9.72546 25.0056 10.0347C26.0156 10.6394 27.3466 11.6243 27.3466 13.6308C27.3466 14.9135 26.571 16.5237 25.4251 17.1559C24.38 17.7308 22.4701 18.2461 19.1051 18.2461C18.681 18.2461 -1.63798 18.2461 -1.63798 18.2461V19.2494C-1.63798 19.2494 17.4953 19.2494 19.1825 19.2494C23.2388 19.2494 24.6307 18.8096 26.0601 18.0377C27.4942 17.2658 28.4503 15.6785 28.4503 13.6399C28.4503 11.3632 27.1498 9.99803 25.8422 9.19865Z" fill="#1C1E1D"/>
</g>
<path fill-rule="evenodd" clip-rule="evenodd" d="M29.8797 20.2663C27.2552 18.1522 23.6418 17.0963 19.0465 17.0963C12.8977 17.0963 13.9686 17.094 11.3839 17.094V18.6584C11.3839 18.6584 13.8069 18.6584 18.8333 18.6584C22.742 18.6584 26.2827 19.4463 28.4433 21.2696C30.6038 23.0951 32.2395 25.8116 32.2395 29.1672C32.2395 32.4014 30.8241 34.7996 28.5768 36.6137C26.3296 38.4277 22.3202 39.2271 18.3084 39.2271C13.5233 39.2271 5.39434 39.2271 5.39434 39.2271V40.7915C5.39434 40.7915 16.3892 40.7892 18.3998 40.7892C23.2388 40.7892 27.0162 39.7631 29.7368 37.7085C32.4574 35.6562 33.8189 32.7656 33.8189 29.0413C33.8189 25.3032 32.5066 22.3782 29.8797 20.2663Z" fill="#1C1E1D"/>
<path fill-rule="evenodd" clip-rule="evenodd" d="M28.9096 22.5317C27.2763 21.3223 25.3993 20.3442 20.0893 20.3442C14.3599 20.3465 10.4864 20.3442 8.07979 20.3442V21.8697C8.07979 21.8697 15.2058 21.8193 19.8925 21.8697C24.4198 21.9155 26.0789 22.4149 27.602 23.5166C29.554 24.9275 30.7632 26.6637 30.7632 29.0962C30.7632 31.4417 29.5353 33.1023 27.5762 34.5133C25.5727 35.954 22.51 35.9723 21.261 35.9998C20.79 36.009 14.702 35.9998 14.702 35.9998V37.523C14.702 37.523 17.7319 37.5642 19.6066 37.523C23.9019 37.4268 26.4538 37.1771 28.8276 35.4547C31.0537 33.8376 32.2324 31.7051 32.2324 29.0046C32.2324 25.4452 30.4117 23.6471 28.9096 22.5317Z" fill="#1C1E1D"/>
<path fill-rule="evenodd" clip-rule="evenodd" d="M10.6504 27.7083H21.9054V26.8562H10.6504V27.7083Z" fill="#1C1E1D"/>
<path fill-rule="evenodd" clip-rule="evenodd" d="M15.2925 30.6883H21.8398V29.9553H15.2925V30.6883Z" fill="#1C1E1D"/>
<path fill-rule="evenodd" clip-rule="evenodd" d="M5.39434 27.7083H8.72889V26.8562H5.39434V27.7083Z" fill="#1C1E1D"/>
<path fill-rule="evenodd" clip-rule="evenodd" d="M3.31581 30.7478H13.4437V29.8958H3.31581V30.7478Z" fill="#1C1E1D"/>
<path fill-rule="evenodd" clip-rule="evenodd" d="M5.81145 8.87799H9.75761V8.1748H5.81145V8.87799Z" fill="#1C1E1D"/>
<path fill-rule="evenodd" clip-rule="evenodd" d="M3.06273 14.5814H12.1009V13.7637H3.06273V14.5814Z" fill="#1C1E1D"/>
<path fill-rule="evenodd" clip-rule="evenodd" d="M3.31581 37.4178H12.8461V36.3962H3.31581V37.4178Z" fill="#1C1E1D"/>
<path fill-rule="evenodd" clip-rule="evenodd" d="M0.93968 40.7299H3.32284V39.2502H0.93968V40.7299Z" fill="#1C1E1D"/>
<path fill-rule="evenodd" clip-rule="evenodd" d="M6.89641 12.0848H21.8609V11.2671H6.89641V12.0848Z" fill="#1C1E1D"/>
<path fill-rule="evenodd" clip-rule="evenodd" d="M14.3786 14.5814H21.5773V13.7637H14.3786V14.5814Z" fill="#1C1E1D"/>
<path fill-rule="evenodd" clip-rule="evenodd" d="M28.1199 24.6986C26.892 23.9725 25.8164 23.4846 20.7455 23.4846C15.5901 23.4846 14.8192 23.4846 12.654 23.4846V24.4535C12.654 24.4535 16.3517 24.4535 20.5674 24.4535C25.0619 24.4535 26.7678 25.2071 27.2833 25.5071C28.291 26.0912 29.6243 27.0395 29.6243 28.9772C29.6243 30.2164 28.8487 31.7694 27.7004 32.3786C26.6553 32.9352 24.7455 33.4323 21.3805 33.4323C20.9564 33.4323 0.639734 33.4323 0.639734 33.4323V34.4012C0.639734 34.4012 19.773 34.3989 21.4578 34.3989C25.5165 34.3989 26.9084 33.9751 28.3378 33.2307C29.7696 32.484 30.7257 30.9517 30.7257 28.9841C30.7257 26.7875 29.4275 25.4705 28.1199 24.6986Z" fill="#1C1E1D"/>
<path fill-rule="evenodd" clip-rule="evenodd" d="M49.4324 22.5088V31.4234H54.4143C56.5679 31.4234 58.2386 31.0203 59.4267 30.214C60.6124 29.4078 61.2053 28.3015 61.2053 26.8974C61.2053 23.9701 58.6862 22.5088 53.6481 22.5088H49.4324ZM49.4324 11.8969V19.8976H53.1911C55.1994 19.8976 56.7788 19.5151 57.9293 18.7501C59.0799 17.9828 59.6564 16.9039 59.6564 15.509C59.6564 13.1017 57.6528 11.8969 53.6481 11.8969H49.4324ZM45.7628 34.0506V9.27197H54.6768C57.3833 9.27197 59.5322 9.7965 61.1186 10.8433C62.705 11.8923 63.4994 13.2574 63.4994 14.9387C63.4994 16.345 63.019 17.5659 62.0583 18.6035C61.0975 19.6388 59.7712 20.3763 58.084 20.8138V20.8825C60.1953 21.0795 61.8825 21.7094 63.1503 22.7745C64.418 23.8419 65.0507 25.2276 65.0507 26.9318C65.0507 29.0505 64.0899 30.7683 62.1684 32.0808C60.2445 33.3933 57.8215 34.0506 54.8947 34.0506H45.7628Z" fill="#1C1E1D"/>
<path fill-rule="evenodd" clip-rule="evenodd" d="M69.1375 34.0506H72.7181V16.3564H69.1375V34.0506ZM70.9723 11.8625C70.3302 11.8625 69.7842 11.6907 69.3343 11.3448C68.882 10.999 68.6571 10.5615 68.6571 10.0324C68.6571 9.50097 68.882 9.06119 69.3343 8.70846C69.7842 8.35801 70.3302 8.18164 70.9723 8.18164C71.6261 8.18164 72.1838 8.35801 72.6431 8.70846C73.1024 9.06119 73.3297 9.50097 73.3297 10.0324C73.3297 10.5386 73.1024 10.9715 72.6431 11.3265C72.1838 11.6838 71.6261 11.8625 70.9723 11.8625Z" fill="#1C1E1D"/>
<path fill-rule="evenodd" clip-rule="evenodd" d="M88.5566 33.8788C87.7106 34.2476 86.5976 34.4308 85.215 34.4308C81.297 34.4308 79.3379 32.7038 79.3379 29.2474V18.7752H75.4949V16.3565H79.3379V12.0366L82.9209 11.1204V16.3565H88.5566V18.7752H82.9209V28.7458C82.9209 29.9323 83.1763 30.7797 83.6848 31.2859C84.1956 31.7921 85.0392 32.0464 86.2203 32.0464C87.1225 32.0464 87.9004 31.8517 88.5566 31.4577V33.8788Z" fill="#1C1E1D"/>
<path fill-rule="evenodd" clip-rule="evenodd" d="M121.08 34.0507H117.724V18.7593C117.724 17.5499 117.818 16.0725 118.005 14.3226H117.925C117.604 15.351 117.314 16.0863 117.061 16.5329L107.214 34.0507H105.567L95.7412 16.6589C95.46 16.1504 95.1718 15.3716 94.8765 14.3226H94.7968C94.9046 15.2342 94.9585 16.723 94.9585 18.7891V34.0507H91.7013V11.2556H96.163L105.004 27.1517C105.689 28.3703 106.129 29.2819 106.331 29.8866H106.45C107.027 28.636 107.488 27.7037 107.837 27.0876L116.859 11.2556H121.08V34.0507Z" fill="#1C1E1D"/>
<path fill-rule="evenodd" clip-rule="evenodd" d="M139.285 25.0993L133.891 25.688C132.229 25.8712 130.978 26.1965 130.132 26.6637C129.288 27.131 128.866 27.9579 128.866 29.1421C128.866 30.0079 129.255 30.7133 130.036 31.2608C130.814 31.8082 131.852 32.0808 133.148 32.0808C134.924 32.0808 136.391 31.5883 137.548 30.6034C138.706 29.6185 139.285 28.3725 139.285 26.863V25.0993ZM142.868 34.0506H139.285V31.286H139.198C137.64 33.4047 135.346 34.4652 132.318 34.4652C130.09 34.4652 128.346 33.9979 127.086 33.0657C125.827 32.1335 125.197 30.8943 125.197 29.3505C125.197 26.0453 127.657 24.1213 132.581 23.5784L139.285 22.8363C139.285 19.8289 137.748 18.3263 134.676 18.3263C131.983 18.3263 129.551 19.0524 127.381 20.5023V17.6002C129.579 16.4939 132.114 15.9419 134.983 15.9419C140.239 15.9419 142.868 18.1408 142.868 22.5431V34.0506Z" fill="#1C1E1D"/>
<path fill-rule="evenodd" clip-rule="evenodd" d="M159.491 19.2244C158.866 18.8442 157.961 18.654 156.782 18.654C155.255 18.654 153.975 19.2244 152.949 20.3651C151.922 21.5057 151.409 23.061 151.409 25.0308V34.0508H147.826V16.3567H151.409V20.0032H151.496C152.007 18.7571 152.785 17.7882 153.835 17.0896C154.882 16.3933 156.054 16.0452 157.35 16.0452C158.282 16.0452 158.995 16.1253 159.491 16.288V19.2244Z" fill="#1C1E1D"/>
<path fill-rule="evenodd" clip-rule="evenodd" d="M171.965 33.8788C171.119 34.2476 170.006 34.4308 168.623 34.4308C164.705 34.4308 162.746 32.7038 162.746 29.2474V18.7752H158.903V16.3565H162.746V12.0366L166.329 11.1204V16.3565H171.965V18.7752H166.329V28.7458C166.329 29.9323 166.585 30.7797 167.093 31.2859C167.604 31.7921 168.448 32.0464 169.629 32.0464C170.531 32.0464 171.309 31.8517 171.965 31.4577V33.8788Z" fill="#1C1E1D"/>
</svg>
