<svg width="131" height="52" viewBox="0 0 131 52" fill="none" xmlns="http://www.w3.org/2000/svg">
<path d="M93.3688 38.7815V4.58813H100.136V38.7815H93.3688Z" fill="#F7A600"/>
<path d="M14.5065 48.9385H0V14.7451H13.9231C20.6899 14.7451 24.6327 18.4909 24.6327 24.3503C24.6327 28.1431 22.1005 30.5941 20.3478 31.4102C22.4398 32.3702 25.1178 34.5308 25.1178 39.0953C25.1178 45.4805 20.6899 48.9385 14.5065 48.9385ZM13.3875 20.7012H6.76668V28.5773H13.3875C16.2592 28.5773 17.866 26.9922 17.866 24.6379C17.866 22.2863 16.2592 20.7012 13.3875 20.7012ZM13.825 34.5805H6.76668V42.9849H13.825C16.8928 42.9849 18.3511 41.0651 18.3511 38.7579C18.3511 36.4534 16.8901 34.5805 13.825 34.5805Z" fill="black"/>
<path d="M45.7569 34.9153V48.9385H39.038V34.9153L28.6202 14.7451H35.9702L42.4452 28.5275L48.8222 14.7451H56.1722L45.7569 34.9153Z" fill="black"/>
<path d="M75.3562 48.9385H60.8497V14.7451H74.7729C81.5395 14.7451 85.4823 18.4909 85.4823 24.3503C85.4823 28.1431 82.9501 30.5941 81.1974 31.4102C83.2895 32.3702 85.9676 34.5308 85.9676 39.0953C85.9676 45.4805 81.5395 48.9385 75.3562 48.9385ZM74.2373 20.7012H67.6163V28.5773H74.2373C77.1089 28.5773 78.7157 26.9922 78.7157 24.6379C78.7157 22.2863 77.1089 20.7012 74.2373 20.7012ZM74.6747 34.5805H67.6163V42.9849H74.6747C77.7425 42.9849 79.2008 41.0651 79.2008 38.7579C79.2008 36.4534 77.7425 34.5805 74.6747 34.5805Z" fill="black"/>
<path d="M121.944 20.7012V48.9411H115.178V20.7012H106.123V14.7451H130.999V20.7012H121.944Z" fill="black"/>
</svg>
