<svg width="183" height="47" viewBox="0 0 183 47" fill="none" xmlns="http://www.w3.org/2000/svg">
<g clipPath="url(#clip0_676_322)">
<path d="M5.77166 15.3168C8.94341 15.3168 11.5146 12.7532 11.5146 9.59088C11.5146 6.42857 8.94341 3.86499 5.77166 3.86499C2.5999 3.86499 0.0286865 6.42857 0.0286865 9.59088C0.0286865 12.7532 2.5999 15.3168 5.77166 15.3168Z" fill="#333333"/>
<path d="M32.0746 15.3168H24.1206C23.1443 15.3168 22.3403 14.5152 22.3403 13.5418V5.61146C22.3403 4.63806 23.1443 3.83643 24.1206 3.83643H32.0746C33.0509 3.83643 33.855 4.63806 33.855 5.61146V13.5418C33.855 14.5438 33.0509 15.3168 32.0746 15.3168Z" fill="#00FFB9"/>
<path d="M11.5147 20.209H11.1701H2.44076C1.09116 20.209 0 21.297 0 22.6425V31.6894V40.7077C0 42.0532 1.09116 43.1412 2.44076 43.1412H9.07389C10.4235 43.1412 11.5147 42.0532 11.5147 40.7077V34.123C11.5147 32.7774 12.6058 31.6894 13.9554 31.6894H20.2439C21.5935 31.6894 22.6847 30.6016 22.6847 29.2559V22.6425C22.6847 21.297 21.5935 20.209 20.2439 20.209H11.5147Z" fill="#00DAFF"/>
<path d="M55.5634 0H58.9517V19.9833H55.5634V0Z" fill="#333333"/>
<path d="M62.5697 6.89976H65.9581V8.18807C66.7334 7.21467 67.8532 6.64209 69.1454 6.64209C70.6386 6.64209 71.9883 7.41507 72.9071 8.7034C73.7685 7.44371 75.1182 6.64209 76.8123 6.64209C79.5977 6.64209 81.6651 8.84656 81.6651 11.7095V19.9834H78.2767V11.9672C78.2767 10.6788 77.3579 9.64818 76.0945 9.64818C74.716 9.64818 73.8259 10.7647 73.8259 12.1103V19.9834H70.4376V11.9672C70.4376 10.6788 69.5187 9.64818 68.1979 9.64818C66.8482 9.64818 65.9868 10.7647 65.9868 12.1103V19.9834H62.5697V6.89976Z" fill="#333333"/>
<path d="M84.7952 6.89976H88.1836V8.3026C89.2172 7.27194 90.6243 6.64209 92.3471 6.64209C95.8792 6.64209 98.8081 9.64818 98.8081 13.4559C98.8081 17.2636 95.8792 20.2697 92.3471 20.2697C90.6243 20.2697 89.2172 19.6399 88.1836 18.6092V25.9956H84.7952V6.89976ZM95.4484 13.4559C95.4484 11.3659 93.7829 9.70543 91.7155 9.70543C89.648 9.70543 87.9537 11.3659 87.9537 13.4559C87.9537 15.5459 89.648 17.2063 91.7155 17.2063C93.7829 17.1777 95.4484 15.5172 95.4484 13.4559Z" fill="#333333"/>
<path d="M100.502 13.4559C100.502 9.6768 103.488 6.64209 107.451 6.64209C111.356 6.64209 114.371 9.64818 114.371 13.4559C114.371 17.2636 111.356 20.2697 107.451 20.2697C103.488 20.241 100.502 17.235 100.502 13.4559ZM111.098 13.4559C111.098 11.3946 109.461 9.79133 107.451 9.79133C105.355 9.79133 103.718 11.3946 103.718 13.4559C103.718 15.5172 105.355 17.149 107.451 17.149C109.461 17.1205 111.098 15.4886 111.098 13.4559Z" fill="#333333"/>
<path d="M115.75 18.2941L117.645 15.9751C118.564 16.9199 119.77 17.4924 120.803 17.4924C121.837 17.4924 122.469 16.9486 122.469 16.2328C122.469 15.3166 121.406 15.0876 119.827 14.5436C117.788 13.8279 116.065 12.9118 116.065 10.6214C116.065 7.95886 118.363 6.61328 120.89 6.61328C122.785 6.61328 124.393 7.35764 125.398 8.47419L123.417 10.4783C122.67 9.73388 121.665 9.21857 120.775 9.21857C119.942 9.21857 119.397 9.648 119.397 10.3351C119.397 11.2226 120.344 11.4803 121.866 11.967C123.819 12.6255 125.8 13.513 125.8 16.1182C125.8 18.7808 123.732 20.2122 120.89 20.2122C118.65 20.2409 116.812 19.3248 115.75 18.2941Z" fill="#333333"/>
<path d="M126.977 18.2941L128.873 15.9751C129.791 16.9199 130.998 17.4924 132.031 17.4924C133.065 17.4924 133.697 16.9486 133.697 16.2328C133.697 15.3166 132.634 15.0876 131.055 14.5436C129.016 13.8279 127.293 12.9118 127.293 10.6214C127.293 7.95886 129.59 6.61328 132.117 6.61328C134.013 6.61328 135.621 7.35764 136.626 8.47419L134.644 10.4783C133.898 9.73388 132.893 9.21857 132.003 9.21857C131.17 9.21857 130.624 9.648 130.624 10.3351C130.624 11.2226 131.572 11.4803 133.094 11.967C135.046 12.6255 137.028 13.513 137.028 16.1182C137.028 18.7808 134.96 20.2122 132.117 20.2122C129.878 20.2409 128.04 19.3248 126.977 18.2941Z" fill="#333333"/>
<path d="M139.267 2.63382C139.267 1.5459 140.186 0.687012 141.248 0.687012C142.34 0.687012 143.23 1.5459 143.23 2.63382C143.23 3.72173 142.34 4.58062 141.248 4.58062C140.157 4.58062 139.267 3.72173 139.267 2.63382ZM139.583 6.8996H142.914V19.9833H139.583V6.8996Z" fill="#333333"/>
<path d="M149.691 18.2942L149.605 19.9833H146.446V0H149.834V8.38841C150.839 7.18598 152.419 6.58476 154.027 6.58476C157.702 6.58476 160.602 9.61948 160.602 13.4272C160.602 17.2349 157.702 20.2696 154.027 20.2696C152.218 20.2409 150.667 19.5253 149.691 18.2942ZM157.214 13.4272C157.214 11.28 155.577 9.61949 153.452 9.61949C151.356 9.61949 149.691 11.28 149.691 13.4272C149.691 15.5744 151.356 17.2636 153.452 17.2636C155.577 17.2636 157.214 15.5744 157.214 13.4272Z" fill="#333333"/>
<path d="M163.244 0H166.603V19.9833H163.244V0Z" fill="#333333"/>
<path d="M182.971 14.0283H172.635C172.892 16.1469 174.414 17.5211 176.339 17.5211C177.716 17.5211 179.009 16.834 179.698 15.6315L182.398 16.7481C181.335 18.8953 179.123 20.2409 176.366 20.2409C172.203 20.2409 169.331 17.2348 169.331 13.4271C169.331 9.61937 172.261 6.61328 176.252 6.61328C180.043 6.61328 182.942 9.27582 183 13.2839L182.971 14.0283ZM172.979 11.4803H179.41C178.866 10.1633 177.832 9.33308 176.281 9.33308C174.672 9.30446 173.553 10.1347 172.979 11.4803Z" fill="#333333"/>
<path d="M55.5634 25.3943H68.0543V28.7725H58.9517V33.6969H67.0205V37.0752H58.9517V45.3776H55.5634V25.3943Z" fill="#333333"/>
<path d="M70.2079 28.0282C70.2079 26.9402 71.1269 26.0813 72.1892 26.0813C73.2805 26.0813 74.1707 26.9402 74.1707 28.0282C74.1707 29.1161 73.2805 29.975 72.1892 29.975C71.0981 29.975 70.2079 29.1161 70.2079 28.0282ZM70.5238 32.2939H73.8548V45.3777H70.5238V32.2939Z" fill="#333333"/>
<path d="M77.3866 32.2941H80.7463V33.4966C81.6938 32.5517 82.9286 32.0364 84.2495 32.0364C86.8913 32.0364 88.9587 34.1837 88.9587 36.9321V45.4064H85.5703V37.3615C85.5703 35.9873 84.5367 35.0139 83.1871 35.0139C81.78 35.0139 80.7463 36.0159 80.7176 37.3615V45.4064H77.3579V32.2941H77.3866Z" fill="#333333"/>
<path d="M91.3135 38.8214C91.3135 35.0423 94.2711 31.979 97.803 31.979C99.6696 31.979 101.105 32.6661 102.081 33.7826V32.2939H105.47V45.3775H102.311L102.225 43.6884C101.249 44.9195 99.7556 45.6352 97.803 45.6352C94.2424 45.6352 91.3135 42.6291 91.3135 38.8214ZM102.168 38.8214C102.168 36.7315 100.531 35.071 98.4348 35.071C96.3385 35.071 94.6731 36.7315 94.6731 38.8214C94.6731 40.9114 96.3098 42.6006 98.4348 42.6006C100.531 42.5719 102.168 40.8828 102.168 38.8214Z" fill="#333333"/>
<path d="M108.973 32.2941H112.333V33.4966C113.28 32.5517 114.515 32.0364 115.836 32.0364C118.478 32.0364 120.545 34.1837 120.545 36.9321V45.4064H117.157V37.3615C117.157 35.9873 116.123 35.0139 114.773 35.0139C113.366 35.0139 112.333 36.0159 112.304 37.3615V45.4064H108.944V32.2941H108.973Z" fill="#333333"/>
<path d="M122.9 38.8502C122.9 35.0712 125.886 32.0364 129.849 32.0364C130.825 32.0364 131.801 32.2368 132.634 32.609V36.3595C131.974 35.5865 130.997 35.0997 129.849 35.0997C127.724 35.0997 126.145 36.7603 126.145 38.8502C126.145 40.9401 127.695 42.5721 129.849 42.5721C130.997 42.5721 131.974 42.0853 132.634 41.3124V45.0915C131.801 45.4637 130.825 45.664 129.849 45.664C125.886 45.6353 122.9 42.6293 122.9 38.8502Z" fill="#333333"/>
<path d="M148.255 39.4227H137.918C138.176 41.5414 139.698 42.9156 141.622 42.9156C143 42.9156 144.292 42.2285 144.982 41.0261L147.681 42.1425C146.618 44.2898 144.407 45.6354 141.651 45.6354C137.487 45.6354 134.616 42.6292 134.616 38.8216C134.616 35.0138 137.544 32.0078 141.536 32.0078C145.326 32.0078 148.226 34.6703 148.284 38.6783L148.255 39.4227ZM138.234 36.8747H144.666C144.12 35.5578 143.086 34.7276 141.536 34.7276C139.956 34.6989 138.808 35.5292 138.234 36.8747Z" fill="#333333"/>
</g>
<defs>
<clipPath id="clip0_676_322">
<rect width="183" height="47" fill="white"/>
</clipPath>
</defs>
</svg>
